<svg height='100px' width='100px'  fill="#000000" xmlns="http://www.w3.org/2000/svg" xmlns:xlink="http://www.w3.org/1999/xlink" viewBox="0 0 100 100" version="1.1" xml:space="preserve" style="" x="0px" y="0px" fill-rule="evenodd" clip-rule="evenodd" stroke-linejoin="round" stroke-miterlimit="1.41421"><path d="M80,29c-3.55911e-06,1.10456 -0.895429,1.99999 -1.99999,1.99999c-9.13762,2.68585e-12 -46.8624,2.70006e-12 -56,2.68585e-12c-1.10456,-4.01306e-06 -1.99999,-0.895429 -1.99999,-1.99999c3.02336e-12,-3.07401 3.02336e-12,-8.92601 3.02336e-12,-12c3.55911e-06,-1.10456 0.895429,-1.99999 1.99999,-1.99999c9.13762,-2.68585e-12 46.8624,-2.68585e-12 56,-2.65743e-12c1.10456,4.01306e-06 1.99999,0.895429 1.99999,1.99999c-2.79954e-12,3.07401 -2.79954e-12,8.92601 -2.79954e-12,12ZM80,56c-3.55911e-06,1.10456 -0.895429,1.99999 -1.99999,1.99999c-9.13762,2.68585e-12 -46.8624,2.68585e-12 -56,2.68585e-12c-1.10456,-4.01306e-06 -1.99999,-0.895429 -1.99999,-1.99999c3.02336e-12,-3.07401 3.02336e-12,-8.92601 3.02336e-12,-12c3.55911e-06,-1.10456 0.895429,-1.99999 1.99999,-1.99999c9.13762,-2.68585e-12 46.8624,-2.68585e-12 56,-2.67164e-12c1.10456,4.01306e-06 1.99999,0.895429 1.99999,1.99999c-2.81375e-12,3.07401 -2.81375e-12,8.92601 -2.81375e-12,12ZM22,93c8.83656,0 16,-7.16344 16,-16c0,-8.83656 -7.16344,-16 -16,-16c-8.83656,0 -16,7.16344 -16,16c0,8.83656 7.16344,16 16,16ZM25,74l-8.46967e-12,-6.99998c4.05157e-06,-0.530434 -0.210706,-1.03914 -0.585777,-1.41422c-0.375071,-0.375076 -0.883778,-0.585793 -1.41421,-0.585796c-0.643565,0 -1.35646,0 -2.00002,-2.56364e-11c-0.530434,3.09904e-06 -1.03914,0.21072 -1.41421,0.585796c-0.375071,0.375076 -0.585781,0.883786 -0.585777,1.41422l8.46967e-12,6.99998l-6.99998,8.46967e-12c-0.530434,-4.05157e-06 -1.03914,0.210706 -1.41422,0.585777c-0.375076,0.375071 -0.585793,0.883778 -0.585796,1.41421c0,0.643565 0,1.35646 -2.63825e-11,2.00002c3.06517e-06,0.530434 0.21072,1.03914 0.585796,1.41421c0.375076,0.375071 0.883786,0.585781 1.41422,0.585777l6.99998,-8.46967e-12l8.46967e-12,6.99998c-4.05157e-06,0.530434 0.210706,1.03914 0.585777,1.41422c0.375071,0.375076 0.883778,0.585793 1.41421,0.585796c0.643565,0 1.35646,0 2.00002,2.63753e-11c0.530434,-3.06517e-06 1.03914,-0.21072 1.41421,-0.585796c0.375071,-0.375076 0.585781,-0.883786 0.585777,-1.41422l-8.46612e-12,-6.99998l6.99998,-8.46967e-12c0.530434,4.05157e-06 1.03914,-0.210706 1.41422,-0.585777c0.375076,-0.375071 0.585793,-0.883778 0.585796,-1.41421c0,-0.643565 0,-1.35646 2.56364e-11,-2.00002c-3.09904e-06,-0.530434 -0.21072,-1.03914 -0.585796,-1.41421c-0.375076,-0.375071 -0.883786,-0.585781 -1.41422,-0.585777l-6.99998,8.46967e-12ZM91,83c-3.55912e-06,1.10457 -0.895433,1.99999 -2,1.99999c-8.04035,-1.03597e-11 -37.9597,-1.03597e-11 -46,-1.03597e-11c-1.10457,6.90665e-08 -2,-0.895427 -2,-1.99999c-1.0175e-11,-3.07401 -1.0175e-11,-8.92601 -1.01821e-11,-12c3.55912e-06,-1.10457 0.895433,-1.99999 2,-1.99999c8.04035,1.03739e-11 37.9597,1.03739e-11 46,1.03739e-11c1.10457,-6.90665e-08 2,0.895427 2,1.99999c1.04023e-11,3.07401 1.04023e-11,8.92601 1.04023e-11,12Z" style="" fill="#000000"></path></svg>